:SAMPLES-PER-SECOND 30
:FULLY-SPECIFIED
:DEGREES
458
root  8.5348 39.6175 -31.9132 151.007 -80.8116 -156.255
RightUpLeg  -5.06011 -19.1711 0.309243
RightLeg  22.1738 -2.05397 2.51352
RightFoot  -9.42977 -0.0347389 -1.71215
RightToes  0.00048216 0.542163 -0.142577
Spine  10.3005 0.367514 12.5855
Spine1  9.22524 2.39224 -1.01144
HEad  4.17609 20.7886 -5.97673
LeftShoulder1  7.89064 -11.611 -45.5052
LeftArm  -3.5544 20.2656 -32.3727
LeftForeArm  30.6053 -21.4179 -3.47842
LeftHand  -0.25398 0.0180481 5.50724
RightShoulder  4.64015 8.14671 33.8805
RightArm  -1.04611 -12.3178 36.2872
RightForeArm  3.64525 32.8758 7.07932
RightHand  -1.21785 3.2555 -16.5485
LeftUpLeg  -16.8962 -0.533785 2.59712
LeftLeg  55.3131 3.09684 5.28956
LeftFoot  3.92799 0.122482 -1.07818
LeftToes  1.06246e-005 4.65856e-005 -8.18502e-006
459
root  7.07678 39.8406 -32.5117 153.392 -81.0493 -158.693
RightUpLeg  -1.03461 -15.6724 -0.705205
RightLeg  19.5963 -5.26194 3.26008
RightFoot  -10.4939 -0.0655052 -0.770638
RightToes  0.00048216 0.542163 -0.142577
Spine  10.0167 0.913471 12.169
Spine1  9.10701 2.91377 -1.73346
HEad  4.53319 20.8872 -6.18549
LeftShoulder1  7.89327 -11.6193 -45.4949
LeftArm  -3.56924 21.5739 -32.163
LeftForeArm  30.2881 -21.2558 -3.51158
LeftHand  -0.25398 0.0180481 5.50724
RightShoulder  4.54004 7.96299 33.6474
RightArm  -1.06574 -11.51 36.3268
RightForeArm  3.74521 36.2707 8.01685
RightHand  -1.21081 3.1121 -16.7183
LeftUpLeg  -18.6573 -0.0730781 1.22193
LeftLeg  46.9726 3.31338 4.21565
LeftFoot  1.73993 0.0283579 -0.371274
LeftToes  1.06246e-005 4.65856e-005 -8.18502e-006
460
root  5.62509 39.9153 -33.0767 154.239 -81.1293 -159.491
RightUpLeg  2.4088 -12.7649 -0.778988
RightLeg  17.6581 -8.07317 3.57755
RightFoot  -11.7167 -0.0820013 -0.568468
RightToes  0.00048216 0.542163 -0.142577
Spine  9.59998 1.39285 12.0224
Spine1  9.05997 3.35881 -2.34951
HEad  4.85128 21.2886 -6.52199
LeftShoulder1  7.85027 -11.58 -45.3599
LeftArm  -3.73378 22.6683 -32.0379
LeftForeArm  30.2699 -20.9594 -3.54765
LeftHand  -0.25398 0.0180481 5.50724
RightShoulder  4.46324 7.81965 33.4714
RightArm  -1.13705 -10.8249 36.318
RightForeArm  3.91487 39.3589 8.94928
RightHand  -1.21829 3.08932 -16.862
LeftUpLeg  -19.1557 2.01332 0.00645633
LeftLeg  35.8775 3.18384 2.85648
LeftFoot  0.234884 0.135742 -1.34437
LeftToes  1.06246e-005 4.65856e-005 -8.18502e-006
461
root  4.15784 39.9121 -33.6201 155.146 -81.0057 -160.254
RightUpLeg  5.78764 -10.7376 -0.437696
RightLeg  15.57 -9.901 3.72544
RightFoot  -12.7964 -0.0960217 -0.74246
RightToes  0.00048216 0.542163 -0.142577
Spine  8.86104 1.90643 11.8405
Spine1  9.39139 3.85581 -3.10249
HEad  5.07259 21.9942 -6.75727
LeftShoulder1  7.74946 -11.4894 -45.0354
LeftArm  -4.29028 23.6909 -32.1318
LeftForeArm  30.5107 -20.6861 -3.56027
LeftHand  -0.25398 0.0180481 5.50724
RightShoulder  4.42648 7.7607 33.3518
RightArm  -1.38631 -10.3269 36.2923
RightForeArm  4.52358 42.0608 9.814
RightHand  -1.17245 2.80936 -16.7712
LeftUpLeg  -18.5066 7.08789 -1.92016
LeftLeg  22.6229 2.4591 1.61169
LeftFoot  0.188096 0.172309 -1.71965
LeftToes  1.06246e-005 4.65856e-005 -8.18502e-006
462
root  2.66861 39.8464 -34.1172 155.89 -80.9685 -161.023
RightUpLeg  9.45859 -9.81974 -0.360543
RightLeg  13.3566 -10.4552 4.0529
RightFoot  -14.0331 -0.0944994 -0.052425
RightToes  0.00048216 0.542163 -0.142577
Spine  8.16511 2.18213 11.6329
Spine1  10.0919 4.30085 -4.1635
HEad  5.381 22.9212 -6.73901
LeftShoulder1  7.64403 -11.3625 -44.7914
LeftArm  -5.07229 24.8556 -32.108
LeftForeArm  30.5951 -20.8537 -3.50529
LeftHand  -0.25398 0.0180481 5.50724
RightShoulder  4.40533 7.72328 33.2946
RightArm  -1.6162 -9.95524 36.3435
RightForeArm  5.43053 44.047 10.4723
RightHand  -1.1492 2.66031 -16.737
LeftUpLeg  -16.6941 10.0521 -3.15883
LeftLeg  8.66348 6.28037 -1.06956
LeftFoot  0.5706 0.158981 -1.54194
LeftToes  1.06246e-005 4.65856e-005 -8.18502e-006
463
root  1.10026 39.6092 -34.5614 153.372 -81.1849 -158.705
RightUpLeg  12.7823 -10.0681 -0.381406
RightLeg  12.8417 -10.1284 4.24782
RightFoot  -15.8372 -0.0549612 1.33067
RightToes  0.00048216 0.542163 -0.142577
Spine  7.54183 2.13634 11.9284
Spine1  10.6434 4.51802 -5.21485
HEad  6.06475 23.825 -6.38509
LeftShoulder1  7.5258 -11.1847 -44.6237
LeftArm  -5.88117 26.0735 -31.8662
LeftForeArm  30.4016 -21.3002 -3.43653
LeftHand  -0.25398 0.0180481 5.50724
RightShoulder  4.35687 7.59203 33.3216
RightArm  -1.84833 -9.85213 36.5969
RightForeArm  6.28989 44.9732 10.768
RightHand  -1.22135 3.01281 -17.0471
LeftUpLeg  -14.3369 1.29554 -0.234602
LeftLeg  -2.88143 22.7015 -7.45391
LeftFoot  -0.454795 0.258746 -2.79446
LeftToes  1.06246e-005 4.65856e-005 -8.18502e-006
464
root  -0.580188 39.2302 -34.9942 148.057 -81.583 -153.442
RightUpLeg  15.3491 -11.6233 -0.513614
RightLeg  14.3576 -8.82374 4.07942
RightFoot  -17.5408 0.000155165 2.21437
RightToes  0.00048216 0.542163 -0.142577
Spine  6.55106 2.14468 12.3463
Spine1  10.9362 4.61877 -5.84312
HEad  7.04673 24.4485 -5.76544
LeftShoulder1  7.36237 -10.9554 -44.3325
LeftArm  -6.78392 27.1066 -31.593
LeftForeArm  30.1964 -21.5914 -3.40229
LeftHand  -0.25398 0.0180481 5.50724
RightShoulder  4.28462 7.37262 33.4485
RightArm  -2.38653 -10.4801 37.005
RightForeArm  6.6845 44.9635 10.7375
RightHand  -1.32518 3.45844 -17.571
LeftUpLeg  -14.4558 1.69536 -1.02081
LeftLeg  -5.93406 28.1425 -9.73184
LeftFoot  -3.20758 0.353724 -4.57374
LeftToes  1.06246e-005 4.65856e-005 -8.18502e-006
465
root  -2.32036 38.9187 -35.4416 146.307 -82.3202 -151.591
RightUpLeg  17.9242 -15.7431 -2.52277
RightLeg  16.3647 -4.34691 3.91855
RightFoot  -18.3447 0.0865009 3.38087
RightToes  0.00048216 0.542163 -0.142577
Spine  5.35666 2.39484 11.4193
Spine1  11.548 4.89914 -5.94878
HEad  8.01771 24.8235 -5.051
LeftShoulder1  7.18441 -10.6907 -44.0531
LeftArm  -7.94306 27.9716 -31.232
LeftForeArm  30.1469 -21.7861 -3.37462
LeftHand  -0.25398 0.0180481 5.50724
RightShoulder  4.26868 7.25356 33.7332
RightArm  -3.12537 -12.0692 37.3298
RightForeArm  6.13793 44.174 10.4722
RightHand  -1.42006 3.74803 -18.2188
LeftUpLeg  -14.4954 1.41833 -2.41022
LeftLeg  -4.95688 31.9448 -10.2228
LeftFoot  -3.45507 0.0948152 -1.2681
LeftToes  1.06246e-005 4.65856e-005 -8.18502e-006
466
root  -4.12069 38.6761 -35.8625 150.719 -83.1076 -156.308
RightUpLeg  20.7524 -22.7653 -7.5454
RightLeg  20.1028 4.75822 4.0293
RightFoot  -18.1694 0.298917 7.07143
RightToes  0.00048216 0.542163 -0.142577
Spine  4.50377 2.85451 9.21013
Spine1  12.2817 5.3004 -5.64822
HEad  9.00448 25.2068 -4.2182
LeftShoulder1  7.03489 -10.3982 -44.0408
LeftArm  -9.33507 28.8361 -30.5682
LeftForeArm  30.0328 -22.0806 -3.35517
LeftHand  -0.25398 0.0180481 5.50724
RightShoulder  4.36628 7.3642 34.2221
RightArm  -3.34336 -14.0891 37.5851
RightForeArm  4.54044 41.9134 9.76683
RightHand  -1.59119 4.38278 -19.0751
LeftUpLeg  -14.8929 2.29684 -4.79143
LeftLeg  0.449644 31.8954 -7.49692
LeftFoot  -1.56286 -0.573729 6.75646
LeftToes  1.06246e-005 4.65856e-005 -8.18502e-006
467
root  -5.92212 38.4988 -36.2196 161.132 -83.9006 -167.527
RightUpLeg  20.8969 -24.4034 -11.6711
RightLeg  27.9141 9.20287 4.69559
RightFoot  -14.3123 0.199221 12.7238
RightToes  0.00048216 0.542163 -0.142577
Spine  4.36864 3.21224 6.45228
Spine1  12.4486 5.5212 -5.38458
HEad  10.2682 25.6627 -3.11185
LeftShoulder1  6.91904 -10.1399 -44.1374
LeftArm  -10.6293 29.5405 -29.7271
LeftForeArm  29.4936 -22.0817 -3.35746
LeftHand  -0.25398 0.0180481 5.50724
RightShoulder  4.50381 7.55879 34.7536
RightArm  -2.4673 -15.6658 38.2392
RightForeArm  2.61365 37.1998 8.37377
RightHand  -1.79729 5.34991 -19.6377
LeftUpLeg  -16.0136 8.13282 -9.16733
LeftLeg  9.195 24.8269 -1.29609
LeftFoot  -0.417799 -1.3395 14.0375
LeftToes  1.06246e-005 4.65856e-005 -8.18502e-006
468
root  -7.57083 38.4725 -36.5009 179.88 -84.7256 173.055
RightUpLeg  15.7298 -19.5915 -12.8034
RightLeg  39.6296 6.86193 5.78564
RightFoot  -3.15314 -1.12939 15.8437
RightToes  0.00048216 0.542163 -0.142577
Spine  4.909 3.2593 3.59756
Spine1  11.9825 5.55055 -5.6588
HEad  11.6687 26.0406 -1.98623
LeftShoulder1  6.85935 -10.0417 -44.0699
LeftArm  -11.4999 29.5969 -29.0385
LeftForeArm  28.6806 -21.3641 -3.35
LeftHand  -0.25398 0.0180481 5.50724
RightShoulder  4.56979 7.64182 35.0378
RightArm  -0.454746 -16.4789 39.5791
RightForeArm  1.27131 30.4927 6.57389
RightHand  -1.71412 5.33289 -18.7555
LeftUpLeg  -16.1199 13.7579 -13.719
LeftLeg  14.3601 17.8489 3.09315
LeftFoot  -1.04599 -1.55067 17.1559
LeftToes  1.06246e-005 4.65856e-005 -8.18502e-006
